<?xml version="1.0" encoding="utf-8"?>
<!-- Uploaded to: SVG Repo, www.svgrepo.com, Generator: SVG Repo Mixer Tools -->
<svg width="800px" height="800px" viewBox="0 0 1024 1024" fill="#000000" class="icon"  version="1.1" xmlns="http://www.w3.org/2000/svg"><path d="M528.028 80.056H304.024a8.028 8.028 0 0 1-6.656-3.562L265.374 28.5a8 8 0 0 1 2.218-11.092 8.012 8.012 0 0 1 11.092 2.218l29.622 44.432h216.41l45.62-45.65a8 8 0 0 1 11.31 11.312l-47.962 47.994a8.01 8.01 0 0 1-5.656 2.342zM256.032 64.058H80.054c-4.42 0-8-3.578-8-8s3.578-8 8-8h175.978c4.42 0 7.998 3.578 7.998 8s-3.578 8-7.998 8zM767.964 64.058h-191.974c-4.422 0-8-3.578-8-8s3.578-8 8-8h191.974c4.42 0 7.998 3.578 7.998 8s-3.578 8-7.998 8z" fill="" /><path d="M480.002 48.06h-127.984a7.994 7.994 0 0 1-7.998-8 7.994 7.994 0 0 1 7.998-7.998h127.984A7.994 7.994 0 0 1 488 40.06c0 4.422-3.578 8-7.998 8zM735.968 879.952h-63.992c-4.42 0-7.998-3.576-7.998-7.998s3.578-8 7.998-8h63.992c4.42 0 7.998 3.578 7.998 8s-3.578 7.998-7.998 7.998z" fill="" /><path d="M671.976 943.944a7.994 7.994 0 0 1-7.998-7.998v-63.992c0-4.422 3.578-8 7.998-8a7.994 7.994 0 0 1 7.998 8v63.992a7.994 7.994 0 0 1-7.998 7.998zM80.054 975.94c-4.42 0-8-3.578-8-7.998V56.058c0-4.422 3.578-8 8-8s8 3.578 8 8V967.94a7.998 7.998 0 0 1-8 8zM767.964 895.95c-4.422 0-8-3.578-8-7.998V56.058c0-4.422 3.578-8 8-8a7.994 7.994 0 0 1 7.998 8v831.892c0 4.422-3.578 8-7.998 8z" fill="" /><path d="M687.974 975.94a7.996 7.996 0 0 1-5.656-13.654l79.99-79.99a7.996 7.996 0 1 1 11.31 11.31l-79.988 79.99a7.974 7.974 0 0 1-5.656 2.344z" fill="" /><path d="M687.974 975.94H80.054c-4.42 0-8-3.578-8-7.998 0-4.422 3.578-8 8-8h607.92c4.422 0 8 3.578 8 8a7.994 7.994 0 0 1-8 7.998zM815.958 1023.934c-4.422 0-8-3.578-8-8V8.064a7.994 7.994 0 0 1 8-7.998 7.994 7.994 0 0 1 7.998 7.998v1007.87a7.994 7.994 0 0 1-7.998 8z" fill="" /><path d="M815.958 1023.934H32.06c-4.422 0-8-3.578-8-8s3.578-7.998 8-7.998h783.898c4.42 0 7.998 3.576 7.998 7.998s-3.578 8-7.998 8z" fill="" /><path d="M32.06 1023.934c-4.422 0-8-3.578-8-8V8.064a7.994 7.994 0 0 1 8-7.998 7.994 7.994 0 0 1 7.998 7.998v1007.87c0 4.422-3.578 8-7.998 8z" fill="" /><path d="M815.958 16.064H32.06c-4.422 0-8-3.578-8-8a7.994 7.994 0 0 1 8-7.998h783.898a7.994 7.994 0 0 1 7.998 7.998 7.994 7.994 0 0 1-7.998 8zM943.942 911.962a7.994 7.994 0 0 1-6.654-3.56l-31.996-47.996a7.974 7.974 0 0 1-0.938-6.966l15.592-46.76v-14.702c0-4.42 3.576-7.998 7.998-7.998s8 3.578 8 7.998v15.998c0 0.86-0.14 1.718-0.406 2.532l-14.766 44.276 29.824 44.744a8 8 0 0 1-6.654 12.434z" fill="" /><path d="M943.942 911.962a8 8 0 0 1-6.654-12.436l29.824-44.744-14.766-44.276a8.16 8.16 0 0 1-0.406-2.532v-15.998c0-4.42 3.578-7.998 8-7.998s8 3.578 8 7.998v14.702l15.59 46.76a7.968 7.968 0 0 1-0.938 6.966L950.596 908.4a7.99 7.99 0 0 1-6.654 3.562zM975.938 671.994h-63.992a7.994 7.994 0 0 1-7.998-7.998c0-4.422 3.578-8 7.998-8h63.992a7.994 7.994 0 0 1 7.998 8 7.994 7.994 0 0 1-7.998 7.998z" fill="" /><path d="M911.946 671.994a8.004 8.004 0 0 1-7.998-7.686l-15.998-399.964a8.016 8.016 0 0 1 7.686-8.31c4.64 0.312 8.14 3.264 8.312 7.686l15.998 399.964a8.018 8.018 0 0 1-7.688 8.31h-0.312zM975.938 671.994h-0.312a8.018 8.018 0 0 1-7.686-8.31l15.996-399.964c0.188-4.42 4.172-7.326 8.312-7.686a8.02 8.02 0 0 1 7.686 8.31l-15.998 399.964a8.004 8.004 0 0 1-7.998 7.686z" fill="" /><path d="M991.936 272.032c-4.422 0-8-3.578-8-8 0-37.15-13.452-55.992-39.994-55.992s-39.994 18.842-39.994 55.992c0 4.422-3.578 8-8 8s-7.998-3.578-7.998-8c0-45.744 20.404-71.99 55.992-71.99 35.59 0 55.992 26.246 55.992 71.99 0 4.422-3.576 8-7.998 8z" fill="" /><path d="M959.94 208.04h-31.996c-4.422 0-7.998-3.578-7.998-8s3.576-8 7.998-8h31.996c4.422 0 8 3.578 8 8s-3.578 8-8 8zM943.942 480.004a7.994 7.994 0 0 1-7.998-8V232.036c0-4.42 3.576-7.998 7.998-7.998s7.998 3.578 7.998 7.998v239.97a7.994 7.994 0 0 1-7.998 7.998zM975.938 703.99h-63.992a7.994 7.994 0 0 1-7.998-7.998c0-4.422 3.578-8 7.998-8h63.992a7.994 7.994 0 0 1 7.998 8 7.994 7.994 0 0 1-7.998 7.998z" fill="" /><path d="M975.938 703.99a7.994 7.994 0 0 1-7.998-7.998v-31.996c0-4.422 3.576-8 7.998-8s7.998 3.578 7.998 8v31.996a7.994 7.994 0 0 1-7.998 7.998zM911.946 703.99a7.994 7.994 0 0 1-7.998-7.998v-31.996c0-4.422 3.578-8 7.998-8 4.422 0 8 3.578 8 8v31.996a7.994 7.994 0 0 1-8 7.998zM975.938 799.976h-63.992a7.994 7.994 0 0 1-7.998-7.998 7.994 7.994 0 0 1 7.998-7.998h63.992a7.994 7.994 0 0 1 7.998 7.998 7.992 7.992 0 0 1-7.998 7.998z" fill="" /><path d="M975.938 799.976a7.992 7.992 0 0 1-7.998-7.998v-95.986c0-4.422 3.576-8 7.998-8s7.998 3.578 7.998 8v95.986a7.992 7.992 0 0 1-7.998 7.998zM911.946 799.976a7.994 7.994 0 0 1-7.998-7.998v-95.986c0-4.422 3.578-8 7.998-8 4.422 0 8 3.578 8 8v95.986a7.994 7.994 0 0 1-8 7.998zM208.038 320.024a7.982 7.982 0 0 1-5.656-2.342l-31.996-31.996a8 8 0 1 1 11.312-11.312l31.996 31.996a8 8 0 0 1-5.656 13.654z" fill="" /><path d="M208.038 320.024a8 8 0 0 1-5.656-13.654l63.992-63.992a7.996 7.996 0 1 1 11.31 11.31l-63.992 63.992a7.964 7.964 0 0 1-5.654 2.344z" fill="" /><path d="M671.976 240.036H352.018a7.994 7.994 0 0 1-7.998-8 7.994 7.994 0 0 1 7.998-7.998h319.958a7.994 7.994 0 0 1 7.998 7.998c0 4.422-3.576 8-7.998 8z" fill="" /><path d="M671.976 288.03H352.018a7.994 7.994 0 0 1-7.998-8 7.994 7.994 0 0 1 7.998-7.998h319.958a7.994 7.994 0 0 1 7.998 7.998c0 4.422-3.576 8-7.998 8z" fill="" /><path d="M511.998 336.022h-159.98c-4.42 0-7.998-3.578-7.998-8s3.578-8 7.998-8h159.98c4.422 0 7.998 3.578 7.998 8s-3.576 8-7.998 8z" fill="" /><path d="M176.042 559.992a7.996 7.996 0 0 1-5.656-13.652l79.99-79.99a7.996 7.996 0 1 1 11.31 11.31l-79.988 79.99a7.986 7.986 0 0 1-5.656 2.342z" fill="" /><path d="M256.032 559.992a7.982 7.982 0 0 1-5.656-2.342L170.386 477.66a8 8 0 0 1 11.312-11.31l79.988 79.99a7.996 7.996 0 0 1-5.654 13.652z" fill="" /><path d="M671.976 464.006H352.018c-4.42 0-7.998-3.578-7.998-8s3.578-8 7.998-8h319.958c4.422 0 7.998 3.578 7.998 8s-3.576 8-7.998 8z" fill="" /><path d="M671.976 512H352.018a7.994 7.994 0 0 1-7.998-8 7.994 7.994 0 0 1 7.998-7.998h319.958a7.994 7.994 0 0 1 7.998 7.998c0 4.422-3.576 8-7.998 8z" fill="" /><path d="M511.998 559.992h-159.98a7.994 7.994 0 0 1-7.998-7.998 7.994 7.994 0 0 1 7.998-7.998h159.98a7.994 7.994 0 0 1 7.998 7.998 7.992 7.992 0 0 1-7.998 7.998z" fill="" /><path d="M208.038 767.966a7.976 7.976 0 0 1-5.656-2.344l-31.996-31.996a8 8 0 0 1 11.312-11.31l31.996 31.996a7.996 7.996 0 0 1-5.656 13.654z" fill="" /><path d="M208.038 767.966a7.996 7.996 0 0 1-5.656-13.654l63.992-63.992a7.996 7.996 0 1 1 11.31 11.31l-63.992 63.992a7.964 7.964 0 0 1-5.654 2.344z" fill="" /><path d="M671.976 687.976H352.018a7.994 7.994 0 0 1-7.998-8 7.994 7.994 0 0 1 7.998-7.998h319.958a7.994 7.994 0 0 1 7.998 7.998c0 4.422-3.576 8-7.998 8z" fill="" /><path d="M671.976 735.97H352.018a7.994 7.994 0 0 1-7.998-7.998c0-4.422 3.578-8 7.998-8h319.958a7.994 7.994 0 0 1 7.998 8 7.994 7.994 0 0 1-7.998 7.998z" fill="" /><path d="M511.998 783.964h-159.98c-4.42 0-7.998-3.578-7.998-8s3.578-7.998 7.998-7.998h159.98c4.422 0 7.998 3.576 7.998 7.998s-3.576 8-7.998 8z" fill="" /></svg>